# xmcd
#
# Track frame offsets:
#	150
#	11921
#	23977
#	51093
#	63858
#	80018
#	96785
#	105863
#	113450
#	131356
#
# Disc length: 1903
#
# Revision: 2
# Processed by: cddbd v1.5.1PL0 Copyright (c) Steve Scherf et al.
# Submitted via: dBpowerAMP V4.0
# Normalized: r0:DSETVAR1,TDELIM( - ),TSWAP
#
DISCID=71076d0a
DTITLE=Various Artist - Christmas in Blues
DYEAR=1900
DGENRE=Blues
TTITLE0=B.B. King - Celebrate Christmas
TTITLE1=Lowell Fulson - I wanna Spend Christmas with you
TTITLE2=Anita Moore - Santa Claus is Coming to Town
TTITLE3=Sonny Til and The Orioles - What are you doing New Years Eve?
TTITLE4=Brook Benton - Blue Decorations
TTITLE5=Lightnin' Hopkins - Santa
TTITLE6=Anita Moore - Silver Bells
TTITLE7=Charles Taylor - Joy to the World
TTITLE8=Brook Benton - I've Got the Christmas Spirit
TTITLE9=Charles Brown - Let's Make Everyday like Christmas
EXTD=Executive Producer: Kenneth R. Bennett\nCopyright 2000 KRB Music Companies, Inc. Brentwood, TN 37027
EXTT0=
EXTT1=
EXTT2=
EXTT3=
EXTT4=
EXTT5=
EXTT6=
EXTT7=
EXTT8=
EXTT9=
PLAYORDER=
